<svg id="icons" enable-background="new 0 0 64 64" height="512" viewBox="0 0 64 64" width="512" xmlns="http://www.w3.org/2000/svg"><path d="m39 24h-14c0-3.17 2.11-9.21 5-11.28.63-.46 1.3-.72 2-.72.69 0 1.37.26 2 .72 2.89 2.07 5 8.11 5 11.28z" fill="#965353"/><path d="m16 19.28v4.72h-2c-3.86 0-7-3.14-7-7 0-2.9 1.77-5.39 4.28-6.45h.029c.691 3.18 2.461 7.14 4.691 8.73z" fill="#ccd1d9"/><path d="m32 12c-.7 0-1.37.26-2 .72v-2.72-5c-1.11 0-2-.9-2-2s.89-2 2-2h4c1.11 0 2 .9 2 2s-.89 2-2 2v5 2.72c-.63-.46-1.31-.72-2-.72z" fill="#f5f7fa"/><path d="m39.2 10c.6 3.26 2.439 7.59 4.8 9.28v4.72h-5c0-3.17-2.11-9.21-5-11.28v-2.72z" fill="#ccd1d9"/><path d="m25 8c0 .58-.07 1.27-.21 2-.59 3.26-2.43 7.59-4.79 9.28-.63.46-1.31.72-2 .72s-1.37-.26-2-.72c-2.23-1.59-4-5.55-4.69-8.73-.2-.95-.31-1.82-.31-2.55 0-3.87 3.13-7 7-7s7 3.13 7 7z" fill="#965353"/><path d="m20 19.28v4.72h-4v-4.72c.63.46 1.31.72 2 .72s1.37-.26 2-.72z" fill="#f5f7fa"/><path d="m30 10v2.72c-2.89 2.07-5 8.11-5 11.28h-5v-4.72c2.36-1.69 4.2-6.021 4.79-9.28z" fill="#ccd1d9"/><path d="m53 8c0 .72-.11 1.59-.32 2.53-.68 3.18-2.45 7.15-4.68 8.75-.63.46-1.31.72-2 .72s-1.37-.26-2-.72c-2.36-1.69-4.2-6.021-4.8-9.28-.13-.73-.2-1.42-.2-2 0-3.87 3.13-7 7-7 3.86 0 7 3.13 7 7z" fill="#965353"/><path d="m57 17c0 3.86-3.13 7-7 7h-2v-4.72c2.23-1.601 4-5.57 4.68-8.75 2.54 1.05 4.32 3.55 4.32 6.47z" fill="#ccd1d9"/><path d="m48 19.28v4.72h-4v-4.72c.63.46 1.31.72 2 .72s1.37-.26 2-.72z" fill="#f5f7fa"/><path d="m7 17c0 3.86 3.14 7 7 7h2 4 5 14 5 4 2c3.87 0 7-3.14 7-7v4c0 2.8-1.63 5.2-4 6.32-.91.44-1.93.68-3 .68h-4-7-7-7-7-3.99-.01c-1.07 0-2.08-.24-2.99-.68-2.37-1.11-4.01-3.52-4.01-6.32z" fill="#e6e9ed"/><path d="m39.5 42c1.93 0 3.5 1.57 3.5 3.5s-1.57 3.5-3.5 3.5h-.5-7-7-.5c-1.93 0-3.5-1.57-3.5-3.5s1.57-3.5 3.5-3.5h.5 7 7z" fill="#f5f7fa"/><path d="m25 49v14h-7v-35h7v14h-.5c-1.93 0-3.5 1.57-3.5 3.5s1.57 3.5 3.5 3.5z" fill="#ed5565"/><path d="m25 49h7v14h-7z" fill="#da4453"/><path d="m25 28h7v14h-7z" fill="#da4453"/><path d="m57 56c0 2.78-1.62 5.19-3.98 6.31l-.02-.05v-34.93-.01c2.37-1.12 4-3.521 4-6.32z" fill="#da4453"/><g fill="#ed5565"><path d="m32 28h7v14h-7z"/><path d="m53 62.26.02.05c-.91.45-1.94.69-3.02.69h-4v-35h4c1.07 0 2.09-.24 3-.68v.01z"/><path d="m32 49h7v14h-7z"/></g><path d="m39.5 49c1.93 0 3.5-1.57 3.5-3.5s-1.57-3.5-3.5-3.5h-.5v-14h7v35h-7v-14z" fill="#da4453"/><path d="m18 28v35h-3.99-.01c-1.08 0-2.1-.24-3.02-.69l.02-.05v-34.93l.01-.01c.91.44 1.92.68 2.99.68h.01z" fill="#da4453"/><path d="m10.98 62.31c-2.35-1.12-3.98-3.53-3.98-6.31v-35c0 2.8 1.64 5.21 4.01 6.32l-.01.01v34.93z" fill="#ed5565"/><path d="m50.002 64h-35.998c-.553 0-1-.447-1-1s.447-1 1-1h35.998c.553 0 1 .447 1 1s-.447 1-1 1z"/><path d="m14.001 25c-4.411 0-8-3.589-8-8 0-3.223 1.918-6.117 4.886-7.372.508-.214 1.096.023 1.311.531.215.509-.022 1.096-.531 1.311-2.228.941-3.666 3.112-3.666 5.53 0 3.309 2.691 6 6 6 .553 0 1 .448 1 1s-.447 1-1 1z"/><path d="m49.999 25c-.553 0-1-.448-1-1s.447-1 1-1c3.309 0 6-2.691 6-6 0-2.435-1.453-4.611-3.701-5.544-.51-.211-.752-.797-.54-1.307s.796-.752 1.308-.54c2.997 1.245 4.934 4.146 4.934 7.391-.001 4.411-3.59 8-8.001 8z"/><path d="m14.001 64c-4.411 0-8-3.589-8-8 0-.553.447-1 1-1s1 .447 1 1c0 3.309 2.691 6 6 6 .553 0 1 .447 1 1s-.447 1-1 1z"/><path d="m49.999 64c-.553 0-1-.447-1-1s.447-1 1-1c3.309 0 6-2.691 6-6 0-.553.447-1 1-1s1 .447 1 1c0 4.411-3.589 8-8 8z"/><path d="m50.002 29.002h-35.998c-.553 0-1-.448-1-1s.447-1 1-1h35.998c.553 0 1 .448 1 1s-.447 1-1 1z"/><path d="m14.001 29.002c-4.411 0-8-3.589-8-8 0-.552.447-1 1-1s1 .448 1 1c0 3.309 2.691 6 6 6 .553 0 1 .448 1 1s-.447 1-1 1z"/><path d="m49.999 29.002c-.553 0-1-.448-1-1s.447-1 1-1c3.309 0 6-2.691 6-6 0-.552.447-1 1-1s1 .448 1 1c0 4.411-3.589 8-8 8z"/><path d="m39.201 11h-5.204c-.553 0-1-.448-1-1s.447-1 1-1h5.204c.553 0 1 .448 1 1s-.447 1-1 1z"/><path d="m29.998 11h-5.205c-.553 0-1-.448-1-1s.447-1 1-1h5.205c.553 0 1 .448 1 1s-.447 1-1 1z"/><path d="" style="fill:none;stroke:#000;stroke-width:2;stroke-linecap:round;stroke-linejoin:round;stroke-miterlimit:10"/><path d="m49.999 25h-35.998c-.553 0-1-.448-1-1s.447-1 1-1h35.998c.553 0 1 .448 1 1s-.447 1-1 1z"/><path d="m7.001 57c-.553 0-1-.447-1-1v-39c0-.552.447-1 1-1s1 .448 1 1v39c0 .553-.447 1-1 1z"/><path d="m56.999 57c-.553 0-1-.447-1-1v-39c0-.552.447-1 1-1s1 .448 1 1v39c0 .553-.447 1-1 1z"/><path d="m24.496 50.001c-2.481 0-4.5-2.019-4.5-4.5 0-2.48 2.019-4.499 4.5-4.499.553 0 1 .447 1 1s-.447 1-1 1c-1.379 0-2.5 1.121-2.5 2.499 0 1.379 1.121 2.5 2.5 2.5.553 0 1 .447 1 1s-.447 1-1 1z"/><path d="m39.5 50.002c-.553 0-1-.447-1-1s.447-1 1-1c1.379 0 2.5-1.121 2.5-2.5s-1.121-2.5-2.5-2.5c-.553 0-1-.447-1-1s.447-1 1-1c2.481 0 4.5 2.019 4.5 4.5s-2.019 4.5-4.5 4.5z"/><path d="m39.5 43.002h-15.004c-.553 0-1-.447-1-1s.447-1 1-1h15.004c.553 0 1 .447 1 1s-.447 1-1 1z"/><path d="m39.5 50.002-15.004-.001c-.553 0-1-.448-1-1 0-.553.448-1 1-1l15.004.001c.553 0 1 .448 1 1 0 .553-.448 1-1 1z"/><path d="m17.999 21.003c-4.896 0-8-9.143-8-13.003 0-4.411 3.589-8 8-8s8 3.589 8 8c0 3.86-3.104 13.003-8 13.003zm0-19.003c-3.309 0-6 2.691-6 6 0 3.848 3.084 11.003 6 11.003s6-7.155 6-11.003c0-3.309-2.691-6-6-6z"/><path d="m15.999 25.002c-.553 0-1-.448-1-1v-4.717c0-.552.447-1 1-1s1 .448 1 1v4.717c0 .552-.447 1-1 1z"/><path d="m19.999 25c-.553 0-1-.448-1-1v-4.715c0-.552.447-1 1-1s1 .448 1 1v4.715c0 .552-.447 1-1 1z"/><path d="m45.996 21.003c-4.896 0-8-9.143-8-13.003 0-4.411 3.589-8 8-8s8 3.589 8 8c0 3.86-3.104 13.003-8 13.003zm0-19.003c-3.309 0-6 2.691-6 6 0 3.848 3.084 11.003 6 11.003s6-7.155 6-11.003c0-3.309-2.691-6-6-6z"/><path d="m43.996 25.002c-.553 0-1-.448-1-1v-4.717c0-.552.447-1 1-1s1 .448 1 1v4.717c0 .552-.447 1-1 1z"/><path d="m47.996 25c-.553 0-1-.448-1-1v-4.715c0-.552.447-1 1-1s1 .448 1 1v4.715c0 .552-.447 1-1 1z"/><path d="m38.995 25.005c-.553 0-1-.448-1-1 0-3.848-3.084-11.003-6-11.003s-6 7.155-6 11.003c0 .552-.447 1-1 1s-1-.448-1-1c0-3.86 3.104-13.003 8-13.003s8 9.143 8 13.003c0 .552-.447 1-1 1z"/><path d="m33.995 13.721c-.553 0-1-.448-1-1v-7.719c0-.552.447-1 1-1s1 .448 1 1v7.719c0 .552-.447 1-1 1z"/><path d="m29.995 13.721c-.553 0-1-.448-1-1v-7.717c0-.552.447-1 1-1s1 .448 1 1v7.717c0 .552-.447 1-1 1z"/><path d="m29.996 6c-1.653 0-2.998-1.345-2.998-2.999 0-1.653 1.345-2.998 2.998-2.998.553 0 1 .448 1 1s-.447 1-1 1c-.551 0-.998.448-.998.998 0 .551.447.999.998.999.553 0 1 .448 1 1s-.447 1-1 1z"/><path d="m34.001 6c-.553 0-1-.448-1-1s.447-1 1-1c.551 0 .998-.448.998-.999 0-.55-.447-.998-.998-.998-.553 0-1-.448-1-1s.447-1 1-1c1.653 0 2.998 1.345 2.998 2.998 0 1.654-1.345 2.999-2.998 2.999z"/><path d="m34.001 2.003h-4.005c-.553 0-1-.448-1-1s.447-1 1-1h4.005c.553 0 1 .448 1 1s-.447 1-1 1z"/><path d="m11.001 63.262c-.553 0-1-.447-1-1v-34.935c0-.552.447-1 1-1s1 .448 1 1v34.935c0 .552-.447 1-1 1z"/><path d="m18 64c-.553 0-1-.447-1-1v-34.998c0-.552.447-1 1-1s1 .448 1 1v34.998c0 .553-.447 1-1 1z"/><path d="m24.999 43.002c-.553 0-1-.447-1-1v-14c0-.552.447-1 1-1s1 .448 1 1v14c0 .553-.447 1-1 1z"/><path d="m31.998 43.002c-.553 0-1-.447-1-1v-14c0-.552.447-1 1-1s1 .448 1 1v14c0 .553-.447 1-1 1z"/><path d="m38.997 43.002c-.553 0-1-.447-1-1v-14c0-.552.447-1 1-1s1 .448 1 1v14c0 .553-.447 1-1 1z"/><path d="m24.999 63.999c-.553 0-1-.447-1-1v-13.999c0-.553.447-1 1-1s1 .447 1 1v13.999c0 .553-.447 1-1 1z"/><path d="m31.998 63.999c-.553 0-1-.447-1-1v-13.999c0-.553.447-1 1-1s1 .447 1 1v13.999c0 .553-.447 1-1 1z"/><path d="m38.997 63.999c-.553 0-1-.447-1-1v-13.999c0-.553.447-1 1-1s1 .447 1 1v13.999c0 .553-.447 1-1 1z"/><path d="m45.996 64c-.553 0-1-.447-1-1v-34.998c0-.552.447-1 1-1s1 .448 1 1v34.998c0 .553-.447 1-1 1z"/><path d="m52.995 63.262c-.553 0-1-.447-1-1v-34.934c0-.552.447-1 1-1s1 .448 1 1v34.934c0 .552-.447 1-1 1z"/><path d="m36.998 46.501h-10c-.553 0-1-.447-1-1s.447-1 1-1h10c.553 0 1 .447 1 1s-.447 1-1 1z"/></svg>