<?xml version="1.0" encoding="iso-8859-1"?>
<!-- Generator: Adobe Illustrator 19.0.0, SVG Export Plug-In . SVG Version: 6.00 Build 0)  -->
<svg version="1.1" id="Layer_1" xmlns="http://www.w3.org/2000/svg" xmlns:xlink="http://www.w3.org/1999/xlink" x="0px" y="0px"
	 viewBox="0 0 512 512" style="enable-background:new 0 0 512 512;" xml:space="preserve">
<g>
	<rect x="193.724" y="36.77" style="fill:#FFDA44;" width="31.347" height="159.148"/>
	<polygon style="fill:#FFDA44;" points="174.32,195.918 136.056,195.918 93.372,134.969 119.045,116.987 	"/>
</g>
<path style="fill:#0DD9DD;" d="M395.619,176.034c-0.146,6.762-0.888,13.406-2.132,19.884H251.131
	c-1.149-6.489-1.776-13.124-1.776-19.884c0-72.693,73.132-131.635,73.132-131.635S397.134,103.351,395.619,176.034z"/>
<path style="fill:#02A6AA;" d="M322.487,44.398c0,0-4.099,3.305-10.353,9.309c20.522,19.365,63.743,66.844,62.587,122.326
	c-0.146,6.762-0.888,13.406-2.132,19.884h20.898c1.243-6.478,1.985-13.124,2.132-19.884
	C397.134,103.351,322.487,44.398,322.487,44.398z"/>
<polygon style="fill:#0DD9DD;" points="359.064,7.837 322.498,44.402 285.933,7.837 "/>
<g>
	<polygon style="fill:#FFDA44;" points="195.323,195.918 162.868,195.918 130.518,75.201 160.799,67.082 	"/>
	<polygon style="fill:#FFDA44;" points="282.039,103.957 239.156,195.918 204.57,195.918 253.628,90.708 	"/>
</g>
<polygon style="fill:#EBE5DD;" points="423.184,204.278 259.271,504.163 252.74,504.163 88.816,204.278 88.816,195.918 
	423.184,195.918 "/>
<polygon style="fill:#D9CCBC;" points="402.286,195.918 402.286,204.278 245.556,491.021 252.74,504.163 259.271,504.163 
	423.184,204.278 423.184,195.918 "/>
<path d="M322.498,109.767c7.776,0,14.102,6.327,14.102,14.102h15.673c0-16.418-13.357-29.775-29.775-29.775
	s-29.775,13.357-29.775,29.775h15.673C308.396,116.092,314.722,109.767,322.498,109.767z"/>
<path d="M266.506,167.746h15.673c0-7.775,6.326-14.102,14.102-14.102c7.776,0,14.102,6.327,14.102,14.102h15.673
	c0-7.775,6.327-14.102,14.103-14.102c7.776,0,14.102,6.327,14.102,14.102h15.673c0-16.418-13.357-29.775-29.775-29.775
	c-8.675,0-16.492,3.73-21.939,9.668c-5.447-5.938-13.265-9.668-21.939-9.668C279.863,137.97,266.506,151.327,266.506,167.746z"/>
<path d="M402.597,188.082c0.47-4.005,0.768-7.981,0.846-11.884c1.328-63.277-50.497-115.378-69.409-132.249L377.982,0H267.014
	l44.008,44.009c-7.123,6.504-19.097,18.288-31.173,33.989l12.425,9.556c11.626-15.118,23.32-26.503,29.854-32.44l0.371,0.37
	l0.402-0.402c16.515,14.776,66.067,63.933,64.872,120.794c-0.08,3.994-0.422,8.081-0.974,12.205H251.458l40.996-87.915
	l-42.615-19.875l-16.93,36.308V28.933h-47.02v80.278h15.673V44.607h15.673v105.608l-16.54,35.471L166.34,57.484l-45.42,12.177
	l15.775,58.866l-15.727-22.456l-38.511,26.974l32.54,46.47l12.839-8.99l-23.551-33.633l12.837-8.99l31.434,44.884l4.099,15.296
	H80.98v18.198L248.092,512h15.826L431.02,206.28v-18.198H402.597z M340.144,15.673L322.498,33.32l-17.645-17.646H340.144z
	 M257.418,101.122l14.206,6.625l-37.461,80.335h-17.292L257.418,101.122z M140.117,80.74l15.143-4.059l29.851,111.401h-16.228
	L140.117,80.74z M256.005,493.798L97.462,203.755h23.938l146.57,268.155L256.005,493.798z M276.899,455.57L139.26,203.755h275.278
	L276.899,455.57z"/>
<g>
</g>
<g>
</g>
<g>
</g>
<g>
</g>
<g>
</g>
<g>
</g>
<g>
</g>
<g>
</g>
<g>
</g>
<g>
</g>
<g>
</g>
<g>
</g>
<g>
</g>
<g>
</g>
<g>
</g>
</svg>
