<svg height="512" viewBox="0 0 64 64" width="512" xmlns="http://www.w3.org/2000/svg"><rect fill="#ccdce5" height="44" rx="3" width="58" x="3" y="10"/><path d="m29.309 16h-12.618a6.691 6.691 0 0 0 -6.691 6.691v20.618a6.691 6.691 0 0 0 6.691 6.691 6.69 6.69 0 0 0 6.679-6.3l.21-3.569a9.728 9.728 0 0 1 7.352-8.866 6.692 6.692 0 0 0 5.068-6.489v-2.085a6.691 6.691 0 0 0 -6.691-6.691z" fill="#abbac2"/><path d="m28.309 15h-12.618a6.691 6.691 0 0 0 -6.691 6.691v20.618a6.691 6.691 0 0 0 6.691 6.691 6.69 6.69 0 0 0 6.679-6.3l.21-3.569a9.728 9.728 0 0 1 7.352-8.866 6.692 6.692 0 0 0 5.068-6.489v-2.085a6.691 6.691 0 0 0 -6.691-6.691z" fill="#8c6439"/><circle cx="44" cy="30" fill="#ef5249" r="2"/><circle cx="51" cy="41" fill="#88bf40" r="5"/><circle cx="43" cy="44" fill="#c5da5d" r="5"/><path d="m58 9h-52a4 4 0 0 0 -4 4v38a4 4 0 0 0 4 4h52a4 4 0 0 0 4-4v-38a4 4 0 0 0 -4-4zm2 42a2 2 0 0 1 -2 2h-52a2 2 0 0 1 -2-2v-38a2 2 0 0 1 2-2h52a2 2 0 0 1 2 2z"/><path d="m36 21.691a7.7 7.7 0 0 0 -7.691-7.691h-12.618a7.7 7.7 0 0 0 -7.691 7.691v20.618a7.691 7.691 0 0 0 15.368.452l.21-3.57a8.693 8.693 0 0 1 6.6-7.954 7.679 7.679 0 0 0 5.822-7.461zm-2 2.085a5.682 5.682 0 0 1 -4.311 5.524 10.683 10.683 0 0 0 -8.107 9.777l-.21 3.57a5.691 5.691 0 0 1 -11.372-.338v-20.618a5.7 5.7 0 0 1 5.691-5.691h12.618a5.7 5.7 0 0 1 5.691 5.691z"/><path d="m10.136 21.5h12.728v2h-12.728z" transform="matrix(.707 -.707 .707 .707 -11.077 18.257)"/><path d="m8.79 25.25h21.92v2h-21.92z" transform="matrix(.707 -.707 .707 .707 -12.777 21.654)"/><path d="m8.065 30.5h26.87v2h-26.87z" transform="matrix(.707 -.707 .707 .707 -15.977 24.429)"/><path d="m13.964 41.5h7.071v2h-7.071z" transform="matrix(.707 -.707 .707 .707 -24.926 24.822)"/><path d="m44.553 42.105-1.553.777-1.553-.777-.894 1.79 1.447.723v1.382h2v-1.382l1.447-.723z"/><path d="m51 35a5.98 5.98 0 0 0 -5.466 3.569 6 6 0 1 0 2.948 7.858 5.933 5.933 0 0 0 2.518.573 6 6 0 0 0 0-12zm-8 13a4 4 0 1 1 4-4 4 4 0 0 1 -4 4zm8-3a3.945 3.945 0 0 1 -2.022-.558c.01-.147.022-.293.022-.442a5.982 5.982 0 0 0 -1.783-4.263 3.995 3.995 0 1 1 3.783 5.263z"/><path d="m52.553 39.105-1.553.777-1.553-.777-.894 1.79 1.447.723v1.382h2v-1.382l1.447-.723z"/><path d="m26 46h2v2h-2z"/><path d="m28 37h2v2h-2z"/><path d="m37 15h2v2h-2z"/><path d="m36 33h2v2h-2z"/><path d="m39 23h2v2h-2z"/><path d="m44.382 20.109-1.578 1.227 2.35 3.022-.197 1.574 1.984.248.197-1.573 3.022-2.351-1.228-1.578-1.443 1.122.269-2.154 3.023-2.351-1.228-1.579-1.444 1.123.321-2.566-1.985-.248-.32 2.566-1.123-1.444-1.578 1.228 2.35 3.022-.269 2.155z"/><path d="m56.038 22.977 1.522-2.091-1.618-1.177-1.521 2.091-.284-1.806-1.977.311.596 3.782-1.277 1.755-.286-1.806-1.974.312.596 3.78-.934 1.284 1.617 1.176.933-1.282 3.782-.596-.311-1.975-1.806.284 1.278-1.755 3.781-.596-.31-1.976z"/><path d="m44 33a3 3 0 1 0 -3-3 3 3 0 0 0 3 3zm0-4a1 1 0 1 1 -1 1 1 1 0 0 1 1-1z"/><path d="m28 57h26v2h-26z"/><path d="m56 57h2v2h-2z"/><path d="m6 5h26v2h-26z"/></svg>